<svg width="512" height="512" viewBox="0 0 512 512" fill="none" xmlns="http://www.w3.org/2000/svg">
<g clip-path="url(#clip0_4_163)">
<path d="M272.917 484H237.862C228.565 484 219.649 480.307 213.075 473.733C206.501 467.159 202.807 458.242 202.807 448.945L202.862 354.933C202.863 354.163 202.661 353.407 202.277 352.74C201.893 352.073 201.34 351.518 200.675 351.132C200.008 350.748 199.252 350.545 198.482 350.545C197.712 350.545 196.956 350.747 196.289 351.131L114.853 398.302C106.933 402.874 97.5206 404.113 88.6869 401.747C79.8532 399.38 72.3213 393.602 67.7478 385.682L49.6727 354.308L49.6069 354.199C45.1567 346.282 43.9902 336.936 46.3582 328.168C48.7263 319.401 54.4398 311.912 62.2705 307.313L144.003 259.934C144.667 259.549 145.219 258.997 145.602 258.331C145.985 257.666 146.187 256.912 146.186 256.144C146.187 255.376 145.985 254.622 145.602 253.956C145.219 253.291 144.667 252.738 144.003 252.353L62.3472 205.018C56.4254 201.623 51.6475 196.544 48.6211 190.425C45.5948 184.307 44.4569 177.426 45.3522 170.659C45.946 166.166 47.4217 161.835 49.6946 157.914L67.704 126.638C69.9797 122.684 73.0173 119.221 76.6409 116.449C80.2644 113.678 84.4018 111.652 88.8136 110.491C93.175 109.32 97.7255 109.027 102.201 109.629C106.677 110.231 110.988 111.715 114.886 113.996L196.289 161.101C196.788 161.39 197.339 161.577 197.91 161.653C198.481 161.728 199.061 161.69 199.618 161.541C200.174 161.391 200.696 161.133 201.152 160.782C201.609 160.431 201.991 159.993 202.278 159.493C202.662 158.826 202.863 158.07 202.862 157.3L202.807 63.3423C202.808 54.0453 206.501 45.1291 213.075 38.5551C219.649 31.9811 228.565 28.2878 237.862 28.2875H272.917C282.214 28.2878 291.13 31.9811 297.704 38.5551C304.278 45.1291 307.972 54.0453 307.972 63.3423V157.245C307.97 158.015 308.172 158.772 308.556 159.439C308.941 160.106 309.494 160.66 310.161 161.044C310.827 161.43 311.583 161.634 312.352 161.634C313.122 161.635 313.878 161.432 314.545 161.047L395.981 113.876C403.903 109.312 413.312 108.078 422.144 110.444C430.975 112.81 438.507 118.583 443.086 126.496L461.15 157.87L461.216 157.968C465.717 165.893 466.902 175.276 464.514 184.071C462.125 192.866 456.356 200.361 448.465 204.92L366.82 252.244C366.156 252.629 365.605 253.182 365.222 253.847C364.84 254.513 364.638 255.267 364.638 256.034C364.638 256.802 364.84 257.556 365.222 258.221C365.605 258.886 366.156 259.439 366.82 259.824L448.465 307.148C452.396 309.403 455.843 312.412 458.609 316.003C461.375 319.593 463.404 323.694 464.581 328.071C465.758 332.447 466.059 337.013 465.466 341.506C464.874 346 463.399 350.331 461.128 354.253L443.119 385.529C440.844 389.483 437.806 392.946 434.183 395.718C430.559 398.49 426.421 400.515 422.009 401.676C417.648 402.847 413.097 403.14 408.622 402.538C404.146 401.936 399.835 400.452 395.937 398.17L314.534 351.066C314.036 350.778 313.486 350.591 312.916 350.515C312.345 350.44 311.766 350.478 311.21 350.626C310.655 350.775 310.134 351.031 309.677 351.381C309.221 351.731 308.838 352.168 308.55 352.666C308.165 353.332 307.962 354.087 307.961 354.856L307.972 448.945C307.972 453.549 307.065 458.107 305.304 462.36C303.542 466.613 300.96 470.478 297.705 473.733C294.45 476.988 290.585 479.57 286.332 481.332C282.079 483.093 277.521 484 272.917 484Z" fill="black"/>
</g>
<defs>
<clipPath id="clip0_4_163">
<rect width="421" height="455.712" fill="white" transform="translate(46 28.1437)"/>
</clipPath>
</defs>
</svg>
