<?xml version="1.0" encoding="UTF-8"?>
<svg width="512px" height="512px" viewBox="0 0 512 512" version="1.1" xmlns="http://www.w3.org/2000/svg" xmlns:xlink="http://www.w3.org/1999/xlink">
    <title>logomark</title>
    <g id="logomark" stroke="none" stroke-width="1" fill="none" fill-rule="evenodd">
        <g transform="translate(46, 46)" fill-rule="nonzero">
            <path d="M393.987941,31.5138838 C402.448478,48.4345555 408.864506,71.4897392 413.207525,100.483116 C417.724606,130.638512 419.99918,167.21763 419.99918,209.99959 C419.99918,266.092449 398.155121,318.827776 358.492269,358.492269 C318.827776,398.155121 266.092449,420 209.99959,420 C168.316312,420 128.095648,407.829868 93.5761454,384.792256 C80.3978508,380.346992 74.4227062,381.491325 72.9584513,382.925229 C70.2087691,385.618309 70.9363849,396.352898 73.3964973,403.790657 C74.6376277,407.541118 74.0084492,411.678766 71.6951725,414.88126 C69.3818957,418.083754 65.678192,420 61.7283951,420 C58.3954719,420 41.0081621,418.480784 26.0112383,388.486116 C8.75107666,353.965793 0,293.914934 0,209.99959 C0,153.906731 21.8440589,101.171404 61.5069111,61.5069111 C101.171404,21.8440589 153.906731,0 209.99959,0 C251.682047,0 291.902711,12.1693122 326.423034,35.2069234 C339.602149,39.6521882 345.576473,38.5078545 347.040728,37.073951 C349.790411,34.3808703 349.062795,23.6462819 346.602682,16.208523 C345.359641,12.4526329 345.992293,8.32850182 348.304007,5.11791969 C350.617284,1.91624626 354.320988,0 358.270785,0 C361.603708,0 378.991018,1.51921578 393.987941,31.5138838 Z M209.99959,49.4237316 C121.457692,49.4237316 49.4237316,121.457692 49.4237316,209.99959 C49.4237316,298.541487 121.457692,370.575448 209.99959,370.575448 C298.541487,370.575448 370.575448,298.541487 370.575448,209.99959 C370.575448,121.457692 298.541487,49.4237316 209.99959,49.4237316 Z" id="Combined-Shape" fill="#418FC1"></path>
            <path d="M209.99959,321.151717 C148.710061,321.151717 98.8474632,271.289119 98.8474632,209.99959 C98.8474632,148.710061 148.710061,98.8474632 209.99959,98.8474632 C271.289119,98.8474632 321.151717,148.710061 321.151717,209.99959 C321.151717,271.289119 271.289119,321.151717 209.99959,321.151717 Z" id="Path" fill="#244F6A"></path>
        </g>
    </g>
</svg>